<svg width="174" height="174" viewBox="0 0 174 174" fill="none" xmlns="http://www.w3.org/2000/svg">
<g clip-path="url(#clip0_10771_89093)">
<path d="M8.53707 33.56C0.082381 43.5236 0.0975936 57.0215 0.107102 65.6482C0.146085 99.6534 2.23218 145.864 39.1563 164.799C47.7974 169.23 110.409 186.25 145.271 158.363C175.582 134.115 179.895 89.3531 167.555 56.6506C157.679 30.4765 134.537 1.50691 108.561 0.0540541C92.2273 -0.859684 92.1331 9.99677 59.9783 18.5522C32.1469 25.9572 18.8772 21.3733 8.53612 33.56H8.53707Z" fill="#00CD62" fill-opacity="0.12"/>
<path d="M94.1815 163.415H163.662C166.618 163.415 169.014 160.864 169.014 157.717L162.241 7.75344C162.241 4.60623 159.845 2.05518 156.889 2.05518H87.4078C84.4517 2.05518 82.0557 4.60623 82.0557 7.75344L88.8293 157.717C88.8293 160.864 91.2254 163.415 94.1815 163.415Z" fill="#00CD62"/>
<path d="M98.2947 163.059H167.775C170.731 163.059 173.127 160.519 173.127 157.386L166.353 8.0793C166.353 4.94635 163.957 2.40576 161.001 2.40576H91.5201C88.564 2.40576 86.168 4.9454 86.168 8.0793L92.9416 157.386C92.9416 160.519 95.3377 163.059 98.2938 163.059H98.2947Z" fill="#0BFF80"/>
<path d="M101.443 159.743H164.773C167.468 159.743 169.652 157.428 169.652 154.572L163.115 11.2614C163.115 8.40509 160.931 6.08984 158.236 6.08984H94.906C92.2114 6.08984 90.0273 8.40509 90.0273 11.2614L96.5642 154.573C96.5642 157.429 98.7483 159.744 101.443 159.744V159.743Z" fill="white"/>
<path d="M141.316 5.84424L139.64 8.4628C138.621 10.0526 136.916 11.0072 135.09 11.0072H118.171C116.385 11.0072 114.71 10.0935 113.685 8.55883L111.871 5.84424H141.316Z" fill="#0BFF80"/>
<path d="M168.517 56.0513C168.35 56.0513 168.211 55.9191 168.204 55.7509L167.492 40.0852C167.485 39.9112 167.619 39.7647 167.793 39.7562C167.971 39.7486 168.113 39.8826 168.122 40.0566L168.833 55.7223C168.841 55.8963 168.707 56.0428 168.533 56.0513C168.528 56.0513 168.523 56.0513 168.518 56.0513H168.517Z" fill="black" fill-opacity="0.87"/>
<path d="M167.776 163.374H98.2961C95.1708 163.374 92.6292 160.687 92.6292 157.385L89.7073 92.9948C89.6997 92.8208 89.8338 92.6744 90.0078 92.6658C90.1866 92.6582 90.3282 92.7923 90.3368 92.9663L93.2586 157.371C93.2586 160.34 95.5188 162.744 98.297 162.744H167.777C170.556 162.744 172.815 160.34 172.815 157.385L171.802 135.059C171.794 134.885 171.929 134.739 172.103 134.73C172.285 134.722 172.424 134.857 172.431 135.031L173.445 157.371C173.445 160.687 170.904 163.374 167.778 163.374H167.776Z" fill="black" fill-opacity="0.87"/>
<path d="M87.6554 41.1429C87.488 41.1429 87.3492 41.0117 87.3416 40.8424L85.8555 8.09335C85.8555 4.77689 88.397 2.09082 91.5224 2.09082H161.003C164.128 2.09082 166.669 4.77689 166.669 8.07908L166.804 11.0352C166.811 11.2092 166.677 11.3556 166.503 11.3642C166.32 11.3727 166.182 11.2377 166.174 11.0637L166.039 8.09335C166.039 5.12394 163.779 2.72026 161.001 2.72026H91.5214C88.7431 2.72026 86.484 5.12394 86.484 8.07908L87.9691 40.8139C87.9767 40.9879 87.8427 41.1343 87.6687 41.1429C87.6639 41.1429 87.6592 41.1429 87.6544 41.1429H87.6554Z" fill="black" fill-opacity="0.87"/>
<path d="M137.457 81.9336H124.556C118.901 81.9336 114.317 86.5175 114.317 92.172C114.317 95.9078 114.682 99.6341 115.405 103.299L117.26 112.694C118.556 119.259 124.314 123.99 131.006 123.99C137.698 123.99 143.455 119.258 144.752 112.694L146.607 103.299C147.331 99.6341 147.695 95.9078 147.695 92.172C147.695 86.5175 143.111 81.9336 137.457 81.9336Z" fill="white"/>
<path d="M131.006 124.305C124.184 124.305 118.273 119.448 116.951 112.755L115.096 103.361C114.371 99.6838 114.003 95.9195 114.003 92.1723C114.003 86.3533 118.737 81.6191 124.556 81.6191H137.457C143.276 81.6191 148.01 86.3533 148.01 92.1723C148.01 95.9195 147.642 99.6838 146.916 103.361L145.061 112.755C143.739 119.448 137.829 124.305 131.006 124.305ZM124.556 82.2486C119.084 82.2486 114.632 86.7003 114.632 92.1723C114.632 95.8786 114.997 99.602 115.714 103.239L117.569 112.633C118.833 119.032 124.484 123.676 131.006 123.676C137.529 123.676 143.18 119.031 144.443 112.633L146.298 103.239C147.016 99.602 147.381 95.8786 147.381 92.1723C147.381 86.7003 142.929 82.2486 137.457 82.2486H124.556Z" fill="black" fill-opacity="0.87"/>
<path d="M133.461 102.18H128.552C126.03 102.18 123.984 100.135 123.984 97.6126V81.9336H138.029V97.6126C138.029 100.135 135.984 102.18 133.461 102.18Z" fill="#0BFF80"/>
<path d="M138.027 82.2486H123.983C123.809 82.2486 123.668 82.1079 123.668 81.9339C123.668 81.7599 123.809 81.6191 123.983 81.6191H138.027C138.201 81.6191 138.342 81.7599 138.342 81.9339C138.342 82.1079 138.201 82.2486 138.027 82.2486Z" fill="black" fill-opacity="0.87"/>
<path d="M155.036 55.4629H157.036C158.947 55.4629 160.498 57.0146 160.498 58.9248V62.6454C160.498 64.5565 158.946 66.1073 157.036 66.1073H155.036V55.4619V55.4629Z" fill="white"/>
<path d="M157.037 66.4218H155.037C154.863 66.4218 154.723 66.2811 154.723 66.1071V55.4617C154.723 55.2877 154.863 55.147 155.037 55.147H157.037C159.119 55.147 160.814 56.8413 160.814 58.9236V62.6442C160.814 64.7265 159.119 66.4208 157.037 66.4208V66.4218ZM155.352 65.7924H157.037C158.772 65.7924 160.184 64.3804 160.184 62.6451V58.9246C160.184 57.1893 158.772 55.7774 157.037 55.7774H155.352V65.7924Z" fill="black" fill-opacity="0.87"/>
<path d="M106.974 66.107H104.974C103.063 66.107 101.512 64.5552 101.512 62.645V58.9245C101.512 57.0133 103.064 55.4625 104.974 55.4625H106.974V66.1079V66.107Z" fill="white"/>
<path d="M106.973 66.4218H104.974C102.892 66.4218 101.197 64.7275 101.197 62.6452V58.9246C101.197 56.8423 102.892 55.1479 104.974 55.1479H106.973C107.147 55.1479 107.288 55.2887 107.288 55.4627V66.1081C107.288 66.2821 107.147 66.4228 106.973 66.4228V66.4218ZM104.974 55.7764C103.239 55.7764 101.827 57.1884 101.827 58.9237V62.6442C101.827 64.3795 103.239 65.7914 104.974 65.7914H106.659V55.7764H104.974Z" fill="black" fill-opacity="0.87"/>
<path d="M105.252 60.3456C105.252 48.9072 116.782 37.0752 131.004 37.0752C145.226 37.0752 156.756 48.9072 156.756 60.3456C156.756 71.7839 145.226 78.4977 131.004 78.4977C116.782 78.4977 105.252 71.7849 105.252 60.3456Z" fill="white"/>
<path d="M131.005 78.8122C123.829 78.8122 117.3 77.0931 112.621 73.9725C107.595 70.6199 104.938 65.9086 104.938 60.3453C104.938 54.7821 107.723 48.7644 112.58 44.1919C117.67 39.3997 124.213 36.7603 131.005 36.7603C137.797 36.7603 144.34 39.3997 149.43 44.1919C154.286 48.7644 157.072 54.6518 157.072 60.3453C157.072 66.0388 154.415 70.6199 149.389 73.9725C144.71 77.0931 138.181 78.8122 131.005 78.8122ZM131.005 37.3897C116.446 37.3897 105.568 49.5098 105.568 60.3453C105.568 65.688 108.128 70.2186 112.97 73.4486C117.547 76.5007 123.952 78.1818 131.005 78.1818C138.058 78.1818 144.463 76.5007 149.04 73.4486C153.883 70.2186 156.442 65.688 156.442 60.3453C156.442 49.5088 145.564 37.3897 131.005 37.3897Z" fill="black" fill-opacity="0.87"/>
<path d="M148.319 56.9131H123.52C120.944 56.9131 118.855 59.1637 118.855 61.9391V65.2185C118.855 67.336 119.986 69.5799 121.934 69.946C128.807 71.2372 143.032 71.2372 149.904 69.946C151.854 69.5799 152.983 67.336 152.983 65.2185V61.9391C152.983 59.1627 150.895 56.9131 148.319 56.9131Z" fill="black" fill-opacity="0.87"/>
<path d="M130.093 63.5125C130.093 64.4424 129.393 65.1964 128.53 65.1964C127.667 65.1964 126.967 64.4424 126.967 63.5125C126.967 62.5826 127.667 61.8286 128.53 61.8286C129.393 61.8286 130.093 62.5826 130.093 63.5125Z" fill="#00CD62"/>
<path d="M145.156 65.1964C146.019 65.1964 146.719 64.4425 146.719 63.5125C146.719 62.5825 146.019 61.8286 145.156 61.8286C144.293 61.8286 143.593 62.5825 143.593 63.5125C143.593 64.4425 144.293 65.1964 145.156 65.1964Z" fill="#00CD62"/>
<path d="M100.464 169.447C101.569 168.544 102.729 167.702 103.917 166.9C106.329 165.27 108.869 163.813 111.438 162.402C112.789 161.66 114.192 160.988 115.576 160.297C116.969 159.602 118.366 158.914 119.764 158.225C121.041 157.596 122.318 156.967 123.592 156.335C126.488 146.542 129.634 135.44 129.009 135.44L81.5131 134.099C80.395 134.099 79.6448 135.009 79.8407 136.126L85.596 168.945C85.7918 170.063 86.8615 170.972 87.9797 170.972H98.549C99.1718 170.447 99.8335 169.962 100.464 169.447Z" fill="#0BFF80"/>
<path d="M130.365 134.212H82.4976C81.4412 134.212 80.7348 135.069 80.9202 136.125L86.6755 168.943C86.8609 170 87.8678 170.856 88.9242 170.856H136.791C137.848 170.856 138.554 170 138.369 168.943L132.613 136.125C132.428 135.069 131.421 134.212 130.365 134.212Z" fill="#0BFF80"/>
<path d="M84.5327 157.052C84.3825 157.052 84.2504 156.945 84.2228 156.792L80.6078 136.18C80.5013 135.57 80.6429 134.995 81.0081 134.56C81.3665 134.133 81.8952 133.897 82.4951 133.897H87.427C87.601 133.897 87.7418 134.038 87.7418 134.212C87.7418 134.386 87.601 134.526 87.427 134.526H82.4951C82.0844 134.526 81.7269 134.681 81.4901 134.964C81.2467 135.254 81.1535 135.646 81.2277 136.07L84.8427 156.681C84.8731 156.853 84.7581 157.016 84.5869 157.046C84.5689 157.048 84.5499 157.05 84.5318 157.05L84.5327 157.052Z" fill="black" fill-opacity="0.87"/>
<path d="M138.002 167.18C137.851 167.18 137.719 167.073 137.692 166.92L132.301 136.18C132.141 135.269 131.271 134.527 130.362 134.527H109.812C109.638 134.527 109.497 134.387 109.497 134.213C109.497 134.039 109.638 133.898 109.812 133.898H130.362C131.563 133.898 132.71 134.873 132.921 136.072L138.312 166.812C138.341 166.983 138.227 167.146 138.056 167.176C138.038 167.179 138.019 167.18 138.001 167.18H138.002Z" fill="black" fill-opacity="0.87"/>
<path d="M144.345 170.876H88.6774C87.9358 170.876 87.332 171.489 87.332 172.277C87.332 173.064 87.9358 173.677 88.6774 173.677H144.345C145.088 173.677 145.69 173.066 145.69 172.277C145.69 171.487 145.088 170.876 144.345 170.876Z" fill="#0BFF80"/>
<path d="M144.345 173.992H100.909L98.4292 173.947C98.2552 173.945 98.1173 173.801 98.1202 173.627C98.123 173.453 98.2723 173.313 98.4406 173.318L100.915 173.363H144.345C144.923 173.363 145.376 172.885 145.376 172.277C145.376 171.668 144.923 171.191 144.345 171.191H100.909L98.9036 171.248C98.9036 171.248 98.8979 171.248 98.8951 171.248C98.7258 171.248 98.5851 171.113 98.5804 170.942C98.5756 170.768 98.7125 170.623 98.8865 170.619L100.9 170.562H144.345C145.276 170.562 146.005 171.316 146.005 172.277C146.005 173.238 145.276 173.992 144.345 173.992Z" fill="black" fill-opacity="0.87"/>
<path d="M129.185 135.478H83.9455C82.9471 135.478 82.2797 136.275 82.4546 137.258L87.8943 167.81C88.0692 168.793 89.021 169.591 90.0193 169.591H135.258C136.257 169.591 136.924 168.793 136.749 167.81L131.31 137.258C131.135 136.275 130.183 135.478 129.185 135.478Z" fill="white"/>
<path d="M82.6914 138.586L82.4556 137.261C82.2806 136.278 82.9481 135.483 83.9465 135.483H129.186C130.184 135.483 131.136 136.278 131.311 137.261L131.546 138.586H82.6914Z" fill="#00CD62"/>
<path d="M89.3392 137.805C89.7898 137.805 90.155 137.44 90.155 136.989C90.155 136.539 89.7898 136.173 89.3392 136.173C88.8887 136.173 88.5234 136.539 88.5234 136.989C88.5234 137.44 88.8887 137.805 89.3392 137.805Z" fill="#00CD62" fill-opacity="0.12"/>
<path d="M87.0824 137.853C87.533 137.853 87.8982 137.488 87.8982 137.037C87.8982 136.586 87.533 136.221 87.0824 136.221C86.6318 136.221 86.2666 136.586 86.2666 137.037C86.2666 137.488 86.6318 137.853 87.0824 137.853Z" fill="#00CD62" fill-opacity="0.12"/>
<path d="M84.8734 137.853C85.324 137.853 85.6892 137.488 85.6892 137.037C85.6892 136.586 85.324 136.221 84.8734 136.221C84.4229 136.221 84.0576 136.586 84.0576 137.037C84.0576 137.488 84.4229 137.853 84.8734 137.853Z" fill="#00CD62" fill-opacity="0.12"/>
<path d="M105.631 168.145H134.265C134.455 168.145 134.598 167.972 134.563 167.786L129.383 140.293C129.376 140.254 129.341 140.226 129.301 140.226H99.9971L105.116 167.719C105.162 167.966 105.379 168.145 105.631 168.145Z" fill="#0BFF80"/>
<path d="M89.3391 168.146H104.008L98.7513 140.137H84.2637L89.3391 168.146Z" fill="#00CD62" fill-opacity="0.12"/>
<path d="M87.6625 150.401C87.3658 150.403 87.1776 150.661 87.2422 150.978L88.0504 154.922C88.1151 155.239 88.4089 155.493 88.7055 155.492L98.8993 155.417C99.1959 155.415 99.3842 155.157 99.3195 154.84L98.5113 150.896C98.4467 150.58 98.1529 150.325 97.8562 150.327L87.6625 150.401Z" fill="#0BFF80"/>
<path d="M87.4432 142.494C87.1466 142.494 86.9564 142.752 87.0201 143.068L87.8026 147.017C87.8654 147.334 88.1573 147.59 88.4539 147.59L98.6477 147.582C98.9443 147.582 99.1345 147.324 99.0708 147.007L98.2883 143.059C98.2255 142.742 97.9336 142.485 97.637 142.485L87.4432 142.494Z" fill="white"/>
<path d="M90.2382 158.252C89.9416 158.252 89.7523 158.511 89.8161 158.827L90.6071 162.774C90.6708 163.091 90.9627 163.347 91.2594 163.347L101.453 163.316C101.75 163.316 101.939 163.058 101.875 162.741L101.084 158.794C101.021 158.477 100.729 158.222 100.432 158.222L90.2382 158.252Z" fill="white"/>
<path d="M105.022 146.942C104.382 146.942 103.974 147.497 104.109 148.179L105.796 156.688C105.931 157.371 106.559 157.924 107.199 157.923L129.165 157.905C129.805 157.905 130.213 157.351 130.078 156.668L128.391 148.159C128.256 147.477 127.627 146.923 126.987 146.924L105.022 146.942Z" fill="white"/>
<path d="M72.1504 144.158L71.7616 154.479L67.1748 155.624L67.2556 144.321L72.1504 144.158Z" fill="white"/>
<path d="M67.1761 155.939C67.1067 155.939 67.0372 155.916 66.9811 155.872C66.9051 155.812 66.8604 155.72 66.8613 155.622L66.9422 144.318C66.9431 144.149 67.0772 144.011 67.2464 144.006L72.1412 143.844C72.2306 143.842 72.3133 143.874 72.3751 143.936C72.4369 143.998 72.4702 144.082 72.4664 144.17L72.0775 154.491C72.0718 154.631 71.9748 154.751 71.8389 154.785L67.2512 155.93C67.2255 155.936 67.2008 155.939 67.1751 155.939H67.1761ZM67.5697 144.625L67.4936 155.22L71.4576 154.231L71.8246 144.484L67.5697 144.625Z" fill="black" fill-opacity="0.87"/>
<path d="M72.5665 151.983C73.215 152.722 74.3892 154.11 75.2906 155.454C75.8573 156.297 75.688 157.432 74.916 158.093C72.7319 159.961 67.5433 163.835 62.6628 166.434C62.329 166.612 61.6207 166.748 60.9494 166.061C58.6969 163.758 62.8729 160.099 66.66 154.879C66.8083 154.675 67.0613 154.573 67.3094 154.621L68.1975 154.791C69.0865 154.962 69.9917 154.583 70.4937 153.83L71.686 152.041C71.8895 151.737 72.325 151.709 72.5665 151.983Z" fill="#00CD62"/>
<path d="M62.0688 166.891C61.6448 166.891 61.1646 166.73 60.7263 166.281C58.8066 164.318 61.0001 161.572 63.7784 158.096C64.637 157.022 65.5241 155.91 66.4074 154.694C66.6271 154.392 67.0045 154.241 67.3706 154.311L68.2587 154.481C69.025 154.629 69.8009 154.303 70.2335 153.654L71.4259 151.866C71.577 151.638 71.8205 151.498 72.0924 151.479C72.3643 151.461 72.6248 151.569 72.8045 151.774C73.4368 152.495 74.6349 153.909 75.5534 155.277C76.2056 156.25 76.0202 157.563 75.1217 158.331C72.8464 160.276 67.6901 164.113 62.8124 166.71C62.6099 166.817 62.3522 166.889 62.0698 166.889L62.0688 166.891ZM67.189 154.923C67.0825 154.923 66.9798 154.975 66.9161 155.063C66.0243 156.292 65.1324 157.409 64.27 158.489C61.5858 161.849 59.6462 164.277 61.176 165.841C61.8055 166.484 62.4026 166.215 62.5157 166.155C67.3497 163.582 72.4585 159.781 74.7119 157.854C75.368 157.293 75.5049 156.336 75.0304 155.629C74.1319 154.29 72.9538 152.9 72.331 152.191C72.2806 152.134 72.2084 152.103 72.1333 152.109C72.0582 152.114 71.9906 152.153 71.9488 152.215L70.7565 154.004C70.1822 154.865 69.1544 155.295 68.1389 155.1L67.2508 154.93C67.2299 154.926 67.2099 154.924 67.189 154.924V154.923Z" fill="black" fill-opacity="0.87"/>
<path d="M75.1537 155.252C75.1537 155.252 75.2469 155.387 75.2906 155.454C75.8573 156.297 75.6881 157.433 74.916 158.093C72.732 159.961 67.5434 163.835 62.6628 166.434C62.3291 166.612 61.6207 166.748 60.9494 166.061C60.744 165.851 60.4883 165.397 60.4883 165.397L60.8258 165.199C65.6313 162.381 70.2237 159.215 74.5661 155.725L75.1547 155.252H75.1537Z" fill="white"/>
<path d="M62.0687 166.892C61.6446 166.892 61.1645 166.73 60.7262 166.281C60.498 166.048 60.2441 165.601 60.2156 165.551C60.1309 165.402 60.1823 165.211 60.3306 165.125L60.6682 164.927C65.4441 162.126 70.0546 158.947 74.3704 155.48L74.959 155.007C75.0274 154.952 75.1149 154.928 75.2024 154.942C75.2889 154.954 75.3669 155.002 75.4163 155.075C75.4163 155.075 75.5105 155.212 75.5551 155.278C76.2084 156.251 76.022 157.564 75.1235 158.332C72.8482 160.278 67.6919 164.114 62.8142 166.711C62.6116 166.818 62.354 166.891 62.0716 166.891L62.0687 166.892ZM60.9249 165.506C61.0057 165.63 61.0989 165.762 61.1759 165.841C61.8053 166.485 62.4025 166.215 62.5156 166.156C67.3496 163.582 72.4583 159.781 74.7118 157.854C75.3422 157.315 75.4933 156.412 75.0835 155.714L74.7641 155.97C70.4245 159.457 65.7883 162.654 60.9857 165.47L60.9239 165.506H60.9249Z" fill="black" fill-opacity="0.87"/>
<path d="M67.3743 158.806C67.3534 158.806 67.3316 158.805 67.3097 158.8L64.3812 158.188C64.211 158.153 64.1016 157.986 64.1378 157.816C64.1729 157.646 64.3393 157.536 64.5105 157.572L67.439 158.184C67.6092 158.219 67.7186 158.386 67.6824 158.556C67.651 158.705 67.5208 158.806 67.3743 158.806Z" fill="black" fill-opacity="0.87"/>
<path d="M65.7557 160.128C65.7329 160.128 65.7091 160.125 65.6854 160.12L63.3093 159.577C63.14 159.538 63.0335 159.37 63.0725 159.201C63.1115 159.032 63.2798 158.925 63.45 158.964L65.8261 159.507C65.9953 159.546 66.1018 159.714 66.0628 159.884C66.0295 160.029 65.9002 160.128 65.7567 160.128H65.7557Z" fill="black" fill-opacity="0.87"/>
<path d="M72.5798 150.218L71.0176 161.413L75.7156 160.879L77.4537 150.698L72.5798 150.218Z" fill="white"/>
<path d="M71.0179 161.728C70.9333 161.728 70.8525 161.694 70.7926 161.633C70.7251 161.563 70.6928 161.466 70.7061 161.369L72.2692 150.175C72.292 150.007 72.4432 149.887 72.6115 149.904L77.4854 150.386C77.5719 150.394 77.6518 150.439 77.7051 150.508C77.7583 150.578 77.7802 150.666 77.765 150.752L76.0259 160.932C76.0021 161.07 75.8899 161.176 75.7511 161.192L71.0531 161.725C71.0417 161.726 71.0293 161.727 71.0179 161.727V161.728ZM72.8511 150.561L71.3859 161.054L75.4459 160.593L77.088 150.978L72.8511 150.561Z" fill="black" fill-opacity="0.87"/>
<path d="M76.8255 159.834C76.9634 160.806 77.1849 162.611 77.203 164.229C77.2144 165.246 76.4518 166.102 75.4439 166.232C72.5943 166.598 66.1297 166.997 60.6235 166.498C60.247 166.464 59.5795 166.189 59.3941 165.247C58.7713 162.087 64.3812 160.543 70.4094 158.25C70.6452 158.161 70.9123 158.213 71.0939 158.389L71.7443 159.019C72.3947 159.648 73.2466 160.597 74.0795 160.241L76.0563 159.398C76.3929 159.254 76.7732 159.469 76.8245 159.833L76.8255 159.834Z" fill="#00CD62"/>
<path d="M66.3612 167.049C64.4481 167.049 62.4694 166.982 60.5963 166.812C60.0268 166.76 59.289 166.335 59.0864 165.309C58.4941 162.303 62.6653 160.771 67.9462 158.831C68.7116 158.55 69.5027 158.26 70.2985 157.957C70.6474 157.823 71.0468 157.905 71.314 158.164L72.1364 158.962C72.6946 159.511 73.3887 160.195 73.9573 159.952L75.934 159.109C76.185 159.002 76.4655 159.018 76.7032 159.152C76.9409 159.286 77.0997 159.518 77.1377 159.789C77.2718 160.739 77.5 162.579 77.519 164.225C77.5323 165.397 76.6576 166.393 75.4852 166.543C73.5265 166.794 70.0684 167.048 66.3621 167.048L66.3612 167.049ZM70.6427 158.523C70.6018 158.523 70.5609 158.531 70.5219 158.545C69.7233 158.848 68.9303 159.14 68.163 159.422C63.3613 161.186 59.2148 162.708 59.7035 165.187C59.8775 166.07 60.5241 166.173 60.6524 166.184C66.1063 166.679 72.4626 166.297 75.4044 165.92C76.2601 165.809 76.8991 165.085 76.8886 164.233C76.8706 162.621 76.6462 160.813 76.514 159.877C76.5035 159.802 76.4598 159.737 76.3933 159.7C76.3276 159.663 76.2497 159.659 76.1803 159.689L74.2035 160.532C73.2479 160.94 72.3494 160.057 71.6943 159.411L70.8756 158.616C70.8129 158.556 70.7283 158.523 70.6427 158.523Z" fill="black" fill-opacity="0.87"/>
<path d="M77.199 163.987C77.199 163.987 77.2028 164.151 77.2028 164.23C77.2142 165.247 76.4516 166.103 75.4438 166.233C72.5942 166.599 66.1295 166.998 60.6233 166.499C60.2468 166.465 59.5793 166.19 59.3939 165.249C59.3369 164.96 59.3721 164.44 59.3721 164.44L59.7628 164.459C65.327 164.734 70.9036 164.6 76.4478 164.06L77.199 163.987Z" fill="white"/>
<path d="M66.3604 167.05C64.4473 167.05 62.4687 166.982 60.5955 166.812C60.026 166.761 59.2882 166.336 59.0856 165.31C59.0229 164.99 59.0543 164.477 59.0581 164.419C59.0695 164.248 59.2178 164.117 59.388 164.126L59.7788 164.145C65.3088 164.418 70.9072 164.284 76.4172 163.747L77.1683 163.673C77.2568 163.665 77.3423 163.693 77.4079 163.751C77.4735 163.809 77.5116 163.893 77.5135 163.98L77.5182 164.227C77.5315 165.398 76.6568 166.395 75.4844 166.545C73.5257 166.796 70.0676 167.05 66.3613 167.05H66.3604ZM59.6771 164.771C59.6771 164.918 59.6828 165.081 59.7037 165.188C59.8777 166.071 60.5242 166.174 60.6526 166.185C66.1065 166.681 72.4627 166.299 75.4046 165.921C76.227 165.816 76.8489 165.142 76.8878 164.334L76.4799 164.374C70.9386 164.914 65.3097 165.049 59.7493 164.774L59.678 164.771H59.6771Z" fill="black" fill-opacity="0.87"/>
<path d="M68.9146 162.749C68.8329 162.749 68.7501 162.716 68.6883 162.653L66.201 160.088C66.0802 159.964 66.0831 159.764 66.2077 159.643C66.3322 159.523 66.5319 159.525 66.6526 159.65L69.14 162.214C69.2607 162.339 69.2579 162.539 69.1333 162.659C69.0725 162.718 68.9936 162.748 68.9146 162.748V162.749Z" fill="black" fill-opacity="0.87"/>
<path d="M66.8376 162.969C66.7548 162.969 66.6731 162.936 66.6113 162.873L64.4909 160.679C64.3702 160.555 64.373 160.355 64.4985 160.234C64.6231 160.113 64.8228 160.116 64.9435 160.242L67.0639 162.435C67.1846 162.56 67.1818 162.759 67.0562 162.88C66.9954 162.939 66.9165 162.969 66.8376 162.969Z" fill="black" fill-opacity="0.87"/>
<path d="M67.5537 81.5908C67.5537 81.5908 57.2212 103.698 53.4711 114.265C52.758 116.274 54.8726 119.961 54.8726 119.961L66.08 151.955L71.3133 152.013C71.3133 152.013 72.7462 130.66 66.9671 119.132C66.4242 118.048 66.407 116.777 66.9138 115.676L75.4788 97.0426L77.6942 85.3665L67.5537 81.5908Z" fill="black" fill-opacity="0.87"/>
<path d="M86.5984 86.094C86.5984 86.094 82.7514 111.122 82.2541 117.473C81.7559 123.823 83.3248 129.208 82.9653 134.386C82.5698 140.077 77.4791 156.176 77.4791 156.176L71.0021 155.91L70.6941 93.7415L69.1689 82.9297L86.5984 86.0931V86.094Z" fill="black" fill-opacity="0.87"/>
<path d="M83.9185 99.0793C83.8348 99.0793 83.7512 99.046 83.6884 98.9795C80.6277 95.7106 80.1485 91.1618 80.1295 90.9698C80.1124 90.7967 80.2388 90.6427 80.4119 90.6256C80.584 90.6085 80.739 90.7349 80.7561 90.908C80.7608 90.9527 81.2362 95.4405 84.1476 98.5497C84.2665 98.6762 84.2598 98.8758 84.1334 98.9947C84.0725 99.0517 83.9955 99.0793 83.9185 99.0793Z" fill="#00CD62" fill-opacity="0.12"/>
<path d="M70.461 109.024C70.461 109.024 70.4515 109.024 70.4468 109.024C70.2728 109.016 70.1387 108.87 70.1463 108.696C70.2271 106.816 70.19 102.862 70.1606 100.673C70.1435 99.3795 69.805 98.1006 69.1822 96.972C68.4928 95.7245 68.0022 94.7804 67.7217 94.168L67.3167 93.28C67.2444 93.1221 67.3138 92.9348 67.4726 92.8626C67.6304 92.7903 67.8177 92.8597 67.89 93.0185L68.296 93.9066C68.566 94.497 69.0633 95.4516 69.7346 96.6677C70.4068 97.8857 70.7729 99.2673 70.791 100.664C70.8271 103.347 70.8537 106.922 70.7757 108.722C70.7681 108.891 70.6293 109.024 70.462 109.024H70.461Z" fill="#00CD62" fill-opacity="0.12"/>
<path d="M71.0022 151.612C70.8282 151.612 70.6875 151.471 70.6875 151.297C70.6875 140.077 70.1398 127.012 70.1341 126.881C70.1265 126.707 70.2615 126.561 70.4355 126.553C70.6086 126.546 70.7559 126.68 70.7635 126.854C70.7692 126.986 71.3169 140.064 71.3169 151.297C71.3169 151.471 71.1762 151.612 71.0022 151.612Z" fill="#00CD62" fill-opacity="0.12"/>
<path d="M58.2054 68.0499L55.5935 68.3808C55.5935 68.3808 54.9137 66.6084 53.245 64.6041C52.6469 63.8862 50.2756 57.9693 51.0353 58.3401C55.6382 60.5802 55.1666 57.1288 56.9903 57.7259C57.6444 57.9408 58.0114 59.0294 58.1731 60.6116C58.3937 62.7738 58.2054 68.0489 58.2054 68.0489V68.0499Z" fill="white"/>
<path d="M55.592 68.6952C55.4636 68.6952 55.3457 68.6163 55.2982 68.4937C55.2915 68.4765 54.6127 66.7413 53.002 64.8064C52.6777 64.4166 51.9798 62.8458 51.4578 61.4966C50.334 58.589 50.5536 58.3075 50.6725 58.1564C50.7904 58.0061 50.9862 57.9671 51.1726 58.0575C53.8663 59.3686 54.6345 58.647 55.3115 58.0109C55.7422 57.6058 56.231 57.1466 57.0876 57.428C57.8369 57.6733 58.2942 58.705 58.4853 60.5809C58.7059 62.7403 58.5262 67.8452 58.5186 68.062C58.5129 68.216 58.3969 68.3434 58.2438 68.3634L55.6319 68.6943C55.6186 68.6962 55.6053 68.6971 55.592 68.6971V68.6952ZM51.2249 58.7772C51.4512 59.9962 53.0181 63.8413 53.4859 64.4032C54.8371 66.0263 55.5483 67.4877 55.7898 68.0382L57.8987 67.771C57.9329 66.6728 58.047 62.4835 57.8597 60.6437C57.6486 58.5719 57.1628 58.1136 56.8918 58.0251C56.4116 57.8673 56.1806 58.0584 55.7432 58.4692C55.0272 59.1424 54.0555 60.0542 51.2258 58.7772H51.2249Z" fill="black" fill-opacity="0.87"/>
<path d="M59.504 65.4061C59.5839 65.5487 59.5848 65.7218 59.505 65.8653C59.4251 66.008 59.2777 66.0992 59.1142 66.1059L54.4171 66.3037C54.2003 66.3132 53.9978 66.2 53.8913 66.0108L48.91 57.1701C48.8301 57.0275 48.8292 56.8544 48.909 56.7109C48.9889 56.5673 49.1363 56.477 49.2998 56.4703L53.9969 56.2725C54.2137 56.263 54.4162 56.3762 54.5227 56.5654L59.504 65.4061Z" fill="white"/>
<path d="M54.3918 66.6184C54.0705 66.6184 53.7757 66.4472 53.6169 66.1648L48.6356 57.3251C48.5025 57.0892 48.5015 56.7954 48.6337 56.5587C48.7649 56.3219 49.015 56.1679 49.286 56.1565L53.983 55.9587C54.3167 55.9454 54.6315 56.1185 54.7959 56.4113L59.7773 65.2511C59.9104 65.4869 59.9114 65.7807 59.7792 66.0174C59.648 66.2542 59.3979 66.4082 59.1269 66.4196L54.4299 66.6174C54.4175 66.6174 54.4042 66.6174 54.3918 66.6174V66.6184ZM54.0201 56.5872C54.0201 56.5872 54.0125 56.5872 54.0087 56.5872L49.3116 56.785C49.2584 56.7869 49.2089 56.8173 49.1833 56.8639C49.1576 56.9105 49.1576 56.9685 49.1833 57.0151L54.1646 65.8558C54.2131 65.9414 54.3025 65.9946 54.4033 65.9889L59.1003 65.7912C59.1536 65.7893 59.203 65.7588 59.2287 65.7122C59.2543 65.6656 59.2543 65.6076 59.2287 65.5611L54.2473 56.7203C54.2007 56.6376 54.1142 56.5872 54.0201 56.5872Z" fill="black" fill-opacity="0.87"/>
<path d="M48.6021 59.0131C48.8427 58.4977 49.3942 58.1887 49.9523 58.3C50.5314 58.416 51.2778 58.8419 51.7465 60.1531C52.569 62.455 54.5761 65.2942 52.9835 65.2942C51.9642 65.2942 48.9026 63.4458 48.3673 61.4186C48.2 60.7844 48.2475 59.7728 48.6021 59.0121V59.0131Z" fill="white"/>
<path d="M52.9834 65.6096C51.7854 65.6096 48.623 63.6224 48.0629 61.5002C47.8946 60.8612 47.9023 59.7687 48.3168 58.8797C48.6258 58.2179 49.3237 57.8528 50.014 57.9916C50.6501 58.1191 51.5173 58.5802 52.0421 60.0483C52.277 60.7062 52.6117 61.4098 52.9349 62.0897C53.6119 63.515 54.1472 64.6407 53.765 65.2464C53.6604 65.4118 53.4398 65.6096 52.9825 65.6096H52.9834ZM49.7221 58.5916C49.3751 58.5916 49.048 58.8027 48.8873 59.1459C48.5536 59.86 48.526 60.7899 48.6715 61.3395C49.1649 63.2097 52.0706 64.9802 52.9834 64.9802C53.0604 64.9802 53.1945 64.9707 53.2335 64.9098C53.4313 64.5979 52.8161 63.3039 52.3673 62.3597C52.0374 61.6656 51.696 60.9468 51.4498 60.2594C51.1132 59.3171 50.5731 58.7456 49.8904 58.6087C49.8343 58.5973 49.7782 58.5916 49.7221 58.5916Z" fill="black" fill-opacity="0.87"/>
<path d="M97.1252 67.3354C95.2321 62.3873 90.5645 59.0452 85.2741 58.7666C80.9612 58.5393 73.503 59.5824 70.2616 64.5847C68.2849 67.6349 66.8919 70.1935 64.4436 70.6338C60.9788 71.2566 58.9393 67.498 58.9393 67.498L54.749 67.9477C54.749 67.9477 56.3436 79.252 63.5707 81.0548C64.5301 81.2944 65.5713 81.2582 66.6324 81.0433C66.3272 82.2043 66.0448 83.2702 66.0448 83.2702C66.0448 83.2702 76.4962 87.1257 81.0297 87.9777C85.4111 88.8011 87.6132 88.1811 87.6132 88.1811L88.5849 79.9946C88.5849 79.9946 89.6888 84.2818 89.1991 87.1647C87.8585 95.0508 82.0984 95.4378 82.0984 95.4378C82.57 96.6035 83.2489 97.6751 84.1027 98.5983L84.194 98.6963C84.194 98.6963 97.0111 100.686 98.8233 85.3781C99.7903 77.2106 98.6531 71.325 97.1271 67.3354H97.1252Z" fill="#0BFF80"/>
<path d="M85.6567 99.1003C84.7791 99.1003 84.2143 99.0176 84.1458 99.0062C84.0755 98.9958 84.0108 98.9606 83.9633 98.9092L83.872 98.8113C82.9887 97.8567 82.2946 96.7604 81.8068 95.5547C81.7688 95.4616 81.7783 95.3551 81.8315 95.2695C81.8848 95.1839 81.9761 95.1297 82.0768 95.1221C82.3012 95.1059 87.6078 94.641 88.8885 87.1105C89.1604 85.5103 88.9227 83.4384 88.6689 81.9571L87.9263 88.2173C87.9111 88.3437 87.8217 88.4483 87.699 88.4835C87.6059 88.5092 85.3752 89.1129 80.972 88.2857C76.4651 87.4385 66.0413 83.6029 65.9367 83.5639C65.7846 83.5079 65.6999 83.3453 65.7418 83.1884C65.7418 83.1884 65.9509 82.3982 66.2039 81.4379C65.2122 81.5872 64.3032 81.5606 63.4959 81.36C56.147 79.5268 54.505 68.4611 54.4384 67.9914C54.427 67.9068 54.4498 67.8212 54.5021 67.7537C54.5544 67.6862 54.6324 67.6434 54.717 67.6339L58.9073 67.1842C59.0337 67.1709 59.1564 67.2346 59.2172 67.3468C59.2363 67.382 61.194 70.8971 64.3887 70.3228C66.4549 69.9511 67.7623 67.9068 69.4167 65.3177C69.6059 65.022 69.7989 64.7197 69.9986 64.4125C73.1287 59.5824 80.1923 58.1828 85.2925 58.4509C90.7312 58.7371 95.492 62.18 97.4212 67.2222C99.3818 72.3462 99.958 78.4666 99.1355 85.4142C98.5365 90.4764 96.6852 94.2179 93.6331 96.535C90.7417 98.7305 87.5051 99.1003 85.6557 99.1003H85.6567ZM84.3474 98.3977C85.0852 98.4833 89.5408 98.856 93.2585 96.0292C96.1651 93.8185 97.9318 90.2225 98.5099 85.341C99.32 78.4961 98.7552 72.4755 96.8317 67.4485C94.9918 62.6393 90.4488 59.3551 85.2583 59.0813C80.3273 58.8217 73.51 60.1519 70.5263 64.7567C70.3276 65.0629 70.1355 65.3643 69.9472 65.6591C68.2101 68.3775 66.8381 70.5244 64.5 70.9447C64.21 70.997 63.9305 71.0207 63.6604 71.0207C60.9192 71.0207 59.2077 68.5467 58.7713 67.8336L55.1145 68.2263C55.4434 70.0633 57.3831 79.1883 63.6471 80.7505C64.4943 80.9616 65.4784 80.9568 66.5699 80.7353C66.6764 80.7134 66.7867 80.7486 66.8609 80.8275C66.936 80.9064 66.9645 81.0186 66.9369 81.1232C66.7268 81.9247 66.5262 82.6816 66.4226 83.0724C68.0874 83.679 77.0356 86.9061 81.088 87.6677C84.5984 88.3276 86.6978 88.0423 87.3273 87.9216L88.2724 79.9565C88.2905 79.8063 88.4131 79.6894 88.5633 79.6799C88.7183 79.6684 88.8514 79.7692 88.8895 79.9157C88.9351 80.0935 90.0048 84.3018 89.5084 87.217C88.357 93.9878 83.9433 95.4045 82.5456 95.685C82.9925 96.6767 83.5925 97.5828 84.3331 98.3844L84.3465 98.3986L84.3474 98.3977Z" fill="black" fill-opacity="0.87"/>
<path d="M66.9592 79.4723C66.9383 79.4723 66.9164 79.4704 66.8955 79.4656C66.7253 79.4305 66.6159 79.2641 66.6511 79.0939C67.9594 72.7471 71.2227 66.9005 71.255 66.8425C71.3396 66.6914 71.5317 66.6372 71.6838 66.7227C71.835 66.8083 71.8892 66.9994 71.8036 67.1516C71.7713 67.2086 68.5556 72.9734 67.2672 79.2213C67.2368 79.3696 67.1056 79.4723 66.9592 79.4723Z" fill="black" fill-opacity="0.87"/>
<path d="M88.5868 80.308C88.4632 80.308 88.3453 80.2348 88.2959 80.1131L84.9585 72.0216C84.892 71.8609 84.969 71.6765 85.1297 71.6109C85.2904 71.5443 85.4748 71.6213 85.5404 71.782L88.8778 79.8735C88.9444 80.0342 88.8673 80.2186 88.7066 80.2842C88.6677 80.3004 88.6268 80.308 88.5868 80.308Z" fill="black" fill-opacity="0.87"/>
<path d="M84.263 49.5103L86.3281 59.0365C86.4147 59.4368 86.2292 59.8466 85.8717 60.0444L85.4676 60.2688C84.2553 60.942 82.8519 61.1882 81.4828 60.9695C81.052 60.9001 80.7269 60.5398 80.7031 60.1033L80.3047 52.8771L84.263 49.5103Z" fill="white"/>
<path d="M82.4543 61.3618C82.113 61.3618 81.7716 61.3352 81.4331 61.281C80.8598 61.1888 80.4205 60.702 80.3882 60.122L79.9898 52.8948C79.9841 52.7968 80.025 52.7018 80.1001 52.6381L84.0583 49.2712C84.143 49.1999 84.258 49.1771 84.3636 49.2132C84.4681 49.2484 84.5471 49.3368 84.5699 49.4443L86.6351 58.9705C86.752 59.5106 86.5067 60.0526 86.0237 60.3207L85.6196 60.5451C84.6507 61.0823 83.5544 61.3618 82.4524 61.3618H82.4543ZM80.6278 53.0165L81.0176 60.0868C81.0338 60.373 81.2506 60.6135 81.533 60.6592C82.827 60.8665 84.1705 60.6297 85.3163 59.9946L85.7204 59.7702C85.9581 59.638 86.0798 59.3699 86.0218 59.1036L84.0679 50.0908L80.6287 53.0155L80.6278 53.0165Z" fill="black" fill-opacity="0.87"/>
<path d="M77.1453 44.9385C74.0817 47.0246 75.2065 49.0784 75.2065 49.0784C75.3986 49.6726 75.8455 51.058 75.7723 51.3375C75.6819 51.6798 75.2893 52.313 75.3092 52.5032C75.3292 52.6934 75.7143 52.9986 76.3314 52.9881C76.3314 52.9881 77.2803 55.8701 78.1645 56.162C79.0488 56.4539 81.7653 54.8004 81.7653 54.8004L82.2112 54.4771C83.647 53.4379 84.2907 51.8557 84.3449 50.0834C84.3449 50.0834 84.1661 40.1578 77.1462 44.9385H77.1453Z" fill="white"/>
<path d="M78.3979 56.5077C78.2743 56.5077 78.1631 56.4934 78.0651 56.4611C77.178 56.1682 76.3746 54.0774 76.1017 53.2939C75.4542 53.2331 75.0301 52.8755 74.9949 52.5361C74.9759 52.3516 75.0729 52.1368 75.2479 51.7726C75.3353 51.59 75.4342 51.3828 75.4675 51.2573C75.478 51.1451 75.3933 50.683 74.9132 49.194C74.7744 48.8945 73.9272 46.7485 76.9689 44.6776C78.9561 43.3246 80.6276 42.9813 81.9378 43.6593C84.5393 45.0056 84.6562 49.871 84.66 50.0773C84.5992 52.0997 83.8167 53.7047 82.3961 54.7325L81.9502 55.0558C81.9435 55.0605 81.9369 55.0653 81.9293 55.07C81.5024 55.3296 79.5047 56.5086 78.3998 56.5086L78.3979 56.5077ZM76.3299 52.673C76.4659 52.673 76.5866 52.7605 76.6285 52.8889C77.0021 54.0232 77.7561 55.6957 78.262 55.8621C78.7745 56.0323 80.5126 55.1917 81.5898 54.5376L82.0253 54.2219C83.2813 53.3129 83.9735 51.8781 84.0287 50.0735C84.0287 50.0421 83.9146 45.3907 81.6459 44.2183C80.5582 43.6555 79.1025 43.9854 77.3216 45.1986C74.5262 47.1022 75.4713 48.9097 75.4818 48.9277C75.4913 48.9449 75.4989 48.9629 75.5055 48.9819C75.999 50.508 76.1483 51.1451 76.076 51.4179C76.0275 51.6005 75.9201 51.8258 75.8155 52.0445C75.7528 52.1757 75.6624 52.365 75.632 52.461C75.7033 52.538 75.9363 52.6797 76.3252 52.674C76.3271 52.674 76.329 52.674 76.3309 52.674L76.3299 52.673Z" fill="black" fill-opacity="0.87"/>
<path d="M77.8614 43.0724C77.0285 43.5098 76.2992 44.2819 75.8533 44.4454C75.1335 44.7078 74.3643 43.8854 73.5162 44.4635C72.7707 44.9712 72.4845 45.7889 72.5635 46.6104C72.5768 46.7473 72.6062 46.889 72.6557 47.0345C73.326 48.996 74.6771 49.113 75.2048 49.0787C75.2048 49.0787 78.0668 48.0804 78.6725 48.0785C79.2392 48.0766 80.2727 48.7089 80.8166 49.8375C80.8869 49.983 81.0476 50.0619 81.2064 50.0353C81.3928 50.0039 81.5278 49.8356 81.5135 49.6473C81.4698 49.0512 81.4546 47.8427 82.0222 47.6668C82.6849 47.4614 83.8725 48.5862 83.2012 49.6426C82.9949 49.9678 83.2012 50.4156 83.5825 50.4698C83.8991 50.5154 84.2614 50.4327 84.5723 50.0182C84.5723 50.0182 85.5478 46.5277 84.0807 44.1497C82.6136 41.7717 78.9682 42.4905 77.8605 43.0734L77.8614 43.0724Z" fill="black" fill-opacity="0.87"/>
<path d="M75.2476 53.0128C75.1934 53.0128 75.1392 52.9986 75.0898 52.97C74.7246 52.757 74.3957 52.2626 74.2093 51.6474C73.9117 50.6633 74.0942 49.8285 74.6438 49.6621C75.182 49.4995 75.7915 50.0748 76.0948 51.0323C76.1471 51.1977 76.0558 51.3746 75.8894 51.4269C75.7239 51.4791 75.5471 51.3879 75.4948 51.2215C75.279 50.5378 74.9072 50.2393 74.8273 50.264C74.7408 50.2897 74.5991 50.7575 74.8131 51.4649C74.969 51.9802 75.2248 52.3187 75.4083 52.4262C75.5585 52.5136 75.6089 52.7067 75.5214 52.8569C75.4625 52.9577 75.3579 53.0128 75.2495 53.0128H75.2476Z" fill="black" fill-opacity="0.87"/>
<path d="M77.3652 52.2652C77.1028 52.2652 76.8299 52.152 76.5874 51.9381C76.3022 51.6852 76.073 51.3106 75.9437 50.8827C75.6547 49.9309 75.9399 49.0305 76.5912 48.8327C76.925 48.7319 77.3015 48.8375 77.6238 49.1227C77.9091 49.3756 78.1382 49.7503 78.2675 50.1781C78.5556 51.1299 78.2713 52.0303 77.62 52.2281C77.5373 52.2528 77.4517 52.2652 77.3652 52.2652ZM76.848 49.4241C76.8223 49.4241 76.7976 49.4279 76.7738 49.4346C76.5095 49.5145 76.3564 50.0726 76.5466 50.7001C76.6416 51.0139 76.809 51.2934 77.0048 51.4665C77.1598 51.6044 77.3177 51.6624 77.4375 51.6253C77.7018 51.5454 77.8549 50.9873 77.6657 50.3597C77.5706 50.046 77.4032 49.7664 77.2064 49.5934C77.0819 49.4831 76.9545 49.4241 76.848 49.4241Z" fill="black" fill-opacity="0.87"/>
<path d="M77.7086 49.9866C77.5783 49.9866 77.4557 49.9048 77.411 49.7745C77.354 49.61 77.4414 49.4313 77.6059 49.3742L80.7531 48.2865C80.9176 48.2294 81.0964 48.3169 81.1534 48.4814C81.2105 48.6459 81.123 48.8247 80.9585 48.8817L77.8113 49.9694C77.7771 49.9808 77.7428 49.9866 77.7086 49.9866Z" fill="black" fill-opacity="0.87"/>
<path d="M8.14394 67.2646H46.4249C47.7836 67.2646 48.9027 68.3334 48.9645 69.6911L49.4599 80.5457C49.5265 81.9938 48.3703 83.2042 46.9203 83.2042H15.3787L10.8452 89.1706L10.5723 83.2042H8.63931C7.28059 83.2042 6.16148 82.1355 6.09968 80.7777L5.6043 69.9231C5.53774 68.475 6.69394 67.2646 8.14394 67.2646Z" fill="white"/>
<path d="M10.5703 90.1255L10.2717 83.5924H8.74662C7.1559 83.5924 5.85328 82.3478 5.78101 80.759L5.29515 70.1279C5.25806 69.3102 5.54901 68.5334 6.1138 67.942C6.67954 67.3496 7.4421 67.0244 8.26075 67.0244H34.4197C34.5937 67.0244 34.7344 67.1651 34.7344 67.3391C34.7344 67.5131 34.5937 67.6539 34.4197 67.6539H8.26075C7.6161 67.6539 7.01518 67.9106 6.56924 68.3774C6.12331 68.8443 5.89416 69.4557 5.92364 70.1003L6.40951 80.7314C6.46656 81.9837 7.49344 82.964 8.74662 82.964H10.8736L11.1199 88.3627L15.2227 82.964H46.8032C47.4478 82.964 48.0488 82.7072 48.4947 82.2404C48.9406 81.7735 49.1698 81.1622 49.1403 80.5175L48.6544 69.8864C48.5974 68.6342 47.5705 67.6539 46.3183 67.6539H37.3587C37.1847 67.6539 37.044 67.5131 37.044 67.3391C37.044 67.1651 37.1847 67.0244 37.3587 67.0244H46.3183C47.909 67.0244 49.2116 68.269 49.2839 69.8579L49.7697 80.489C49.8068 81.3067 49.5159 82.0835 48.9511 82.6749C48.3853 83.2673 47.6228 83.5924 46.8041 83.5924H15.5345L10.5703 90.1255Z" fill="black" fill-opacity="0.87"/>
<path d="M12.0598 72.6342H18.0689C18.5434 72.6342 18.9275 72.2139 18.9275 71.7395C18.9275 71.265 18.5434 70.8447 18.0689 70.8447H12.0598C11.5853 70.8447 11.2012 71.265 11.2012 71.7395C11.2012 72.2139 11.5853 72.6342 12.0598 72.6342Z" fill="#0BFF80"/>
<path d="M21.6408 72.6342H25.2672C25.7417 72.6342 26.1258 72.2139 26.1258 71.7395C26.1258 71.265 25.7417 70.8447 25.2672 70.8447H21.6408C21.1664 70.8447 20.7822 71.265 20.7822 71.7395C20.7822 72.2139 21.1664 72.6342 21.6408 72.6342Z" fill="#00CD62" fill-opacity="0.3"/>
<path d="M14.5686 76.3495H25.5306C26.005 76.3495 26.3891 75.9292 26.3891 75.4548C26.3891 74.9803 26.005 74.5601 25.5306 74.5601H14.5686C14.0941 74.5601 13.71 74.9803 13.71 75.4548C13.71 75.9292 14.0941 76.3495 14.5686 76.3495Z" fill="#00CD62" fill-opacity="0.3"/>
<path d="M17.8391 79.9262H25.6576C26.1321 79.9262 26.5162 79.5059 26.5162 79.0314C26.5162 78.557 26.1321 78.1367 25.6576 78.1367H17.8391C17.3646 78.1367 16.9805 78.557 16.9805 79.0314C16.9805 79.5059 17.3646 79.9262 17.8391 79.9262Z" fill="#00CD62"/>
<path d="M12.6096 80.0643H14.3743C14.8487 80.0643 15.2329 79.6441 15.2329 79.1696C15.2329 78.6952 14.8487 78.2749 14.3743 78.2749H12.6096C12.1351 78.2749 11.751 78.6952 11.751 79.1696C11.751 79.6441 12.1351 80.0643 12.6096 80.0643Z" fill="#0BFF80"/>
<path d="M40.7721 79.3809C42.9359 77.3532 43.0913 74.0035 41.1193 71.8991C39.1473 69.7947 35.7946 69.7325 33.6308 71.7602C31.467 73.7879 31.3115 77.1376 33.2835 79.242C35.2556 81.3464 38.6083 81.4086 40.7721 79.3809Z" fill="#00CD62" fill-opacity="0.12"/>
<path d="M38.5856 75.8972C39.3967 75.137 39.455 73.8812 38.7157 73.0923C37.9763 72.3033 36.7194 72.28 35.9082 73.0401C35.097 73.8003 35.0388 75.0561 35.7781 75.845C36.5174 76.634 37.7744 76.6573 38.5856 75.8972Z" fill="#0BFF80"/>
<path d="M32.7998 78.6333C35.0732 81.8394 39.4584 81.3184 41.342 78.7188C38.6987 76.3855 35.3794 76.6394 32.7998 78.6333Z" fill="#0BFF80"/>
<path d="M5.36272 34.1274H34.6993C36.1179 34.1274 37.2855 35.2428 37.3502 36.6604L37.8361 47.2915C37.9055 48.8033 36.6979 50.066 35.1852 50.066H33.5688L29.1494 55.8822L28.8841 50.066H5.84859C4.42996 50.066 3.26236 48.9507 3.1977 47.5331L2.71183 36.9019C2.64242 35.3901 3.84996 34.1274 5.36272 34.1274Z" fill="white"/>
<path d="M29.149 56.1967C29.1176 56.1967 29.0862 56.1919 29.0558 56.1824C28.9294 56.1435 28.8409 56.0284 28.8352 55.8962L28.5833 50.3805H5.84916C4.25844 50.3805 2.95582 49.1359 2.88355 47.5471L2.39769 36.916C2.3606 36.0983 2.65155 35.3215 3.21634 34.73C3.78208 34.1377 4.54368 33.8125 5.36234 33.8125H34.6999C36.2906 33.8125 37.5932 35.0571 37.6655 36.6459L38.1514 47.2771C38.1884 48.0948 37.8975 48.8716 37.3317 49.463C36.766 50.0544 36.0044 50.3805 35.1857 50.3805H33.7253L29.4 56.0721C29.3392 56.152 29.246 56.1967 29.149 56.1967ZM5.36329 34.4419C4.71864 34.4419 4.11772 34.6987 3.67178 35.1655C3.22585 35.6324 2.9967 36.2437 3.02618 36.8884L3.51205 47.5195C3.56909 48.7717 4.59503 49.752 5.84821 49.752H28.8828C29.0511 49.752 29.1899 49.8842 29.1975 50.0525L29.4238 55.0006L33.3183 49.8766C33.3782 49.7986 33.4705 49.752 33.5694 49.752H35.1857C35.8304 49.752 36.4313 49.4953 36.8773 49.0285C37.3232 48.5616 37.5523 47.9502 37.5229 47.3056L37.037 36.6745C36.9799 35.4222 35.954 34.4419 34.7008 34.4419H5.36329Z" fill="black" fill-opacity="0.87"/>
<path d="M15.3134 39.1198H19.1404C19.6405 39.1198 20.0465 38.6757 20.0465 38.1756C20.0465 37.6755 19.6405 37.2314 19.1404 37.2314H15.3134C14.8132 37.2314 14.4072 37.6745 14.4072 38.1756C14.4072 38.6767 14.8132 39.1198 15.3134 39.1198Z" fill="#00CD62" fill-opacity="0.3"/>
<path d="M7.73621 43.0412H19.3058C19.8059 43.0412 20.2119 42.5981 20.2119 42.097C20.2119 41.5959 19.8059 41.1528 19.3058 41.1528H7.73621C7.23608 41.1528 6.83008 41.5969 6.83008 42.097C6.83008 42.5971 7.23608 43.0412 7.73621 43.0412Z" fill="#00CD62" fill-opacity="0.3"/>
<path d="M11.1903 46.9621H19.4425C19.9426 46.9621 20.3486 46.518 20.3486 46.0179C20.3486 45.5178 19.9426 45.0737 19.4425 45.0737H11.1903C10.6902 45.0737 10.2842 45.5168 10.2842 46.0179C10.2842 46.519 10.6902 46.9621 11.1903 46.9621Z" fill="#0BFF80"/>
<path d="M34.5664 41.8271H35.0095C35.4336 41.8271 35.7768 42.1713 35.7768 42.5945V43.4198C35.7768 43.8438 35.4326 44.1871 35.0095 44.1871H34.5664V41.8271Z" fill="white"/>
<path d="M35.0117 44.5026H34.5686C34.3946 44.5026 34.2539 44.3618 34.2539 44.1878V41.8279C34.2539 41.6539 34.3946 41.5132 34.5686 41.5132H35.0117C35.6088 41.5132 36.0937 41.9991 36.0937 42.5952V43.4205C36.0937 44.0176 35.6079 44.5026 35.0117 44.5026ZM34.8833 43.8731H35.0117C35.2618 43.8731 35.4643 43.6696 35.4643 43.4205V42.5952C35.4643 42.3452 35.2608 42.1426 35.0117 42.1426H34.8833V43.8731Z" fill="black" fill-opacity="0.87"/>
<path d="M23.9102 44.1875H23.4671C23.043 44.1875 22.6998 43.8433 22.6998 43.4202V42.5949C22.6998 42.1708 23.044 41.8276 23.4671 41.8276H23.9102V44.1875Z" fill="white"/>
<path d="M23.9109 44.5026H23.4678C22.8707 44.5026 22.3857 44.0167 22.3857 43.4205V42.5952C22.3857 41.9981 22.8716 41.5132 23.4678 41.5132H23.9109C24.0849 41.5132 24.2256 41.6539 24.2256 41.8279V44.1878C24.2256 44.3618 24.0849 44.5026 23.9109 44.5026ZM23.4678 42.1426C23.2177 42.1426 23.0152 42.3461 23.0152 42.5952V43.4205C23.0152 43.6706 23.2187 43.8731 23.4678 43.8731H23.5961V42.1426H23.4678Z" fill="black" fill-opacity="0.87"/>
<path d="M23.5303 42.9096C23.5303 40.3738 26.087 37.7495 29.2399 37.7495C32.3929 37.7495 34.9496 40.3728 34.9496 42.9096C34.9496 45.4464 32.3929 46.9344 29.2399 46.9344C26.087 46.9344 23.5303 45.4454 23.5303 42.9096Z" fill="white"/>
<path d="M29.2392 47.2494C25.6917 47.2494 23.2148 45.4647 23.2148 42.9099C23.2148 40.355 25.7916 37.4351 29.2392 37.4351C32.6869 37.4351 35.2646 40.3255 35.2646 42.9099C35.2646 45.4942 32.7867 47.2494 29.2392 47.2494ZM29.2392 38.0645C26.151 38.0645 23.8443 40.6222 23.8443 42.9099C23.8443 45.1975 26.0625 46.62 29.2392 46.62C32.4159 46.62 34.6342 45.0939 34.6342 42.9099C34.6342 40.7258 32.3265 38.0645 29.2392 38.0645Z" fill="black" fill-opacity="0.87"/>
<path d="M33.079 42.1479H27.5804C27.0089 42.1479 26.5459 42.6471 26.5459 43.2623V43.9897C26.5459 44.4594 26.7969 44.9567 27.2286 45.0375C28.7528 45.3237 31.9066 45.3237 33.4308 45.0375C33.8634 44.9567 34.1135 44.4584 34.1135 43.9897V43.2623C34.1135 42.6471 33.6504 42.1479 33.079 42.1479Z" fill="black" fill-opacity="0.87"/>
<path d="M28.6898 43.9851C28.881 43.9851 29.0359 43.8178 29.0359 43.6115C29.0359 43.4051 28.881 43.2378 28.6898 43.2378C28.4987 43.2378 28.3438 43.4051 28.3438 43.6115C28.3438 43.8178 28.4987 43.9851 28.6898 43.9851Z" fill="#00CD62"/>
<path d="M32.3764 43.9851C32.5675 43.9851 32.7225 43.8178 32.7225 43.6115C32.7225 43.4051 32.5675 43.2378 32.3764 43.2378C32.1852 43.2378 32.0303 43.4051 32.0303 43.6115C32.0303 43.8178 32.1852 43.9851 32.3764 43.9851Z" fill="#00CD62"/>
<path d="M15.5277 5.93945H60.8029C62.2215 5.93945 63.3891 7.05476 63.4538 8.47244L63.9397 19.1036C64.0091 20.6154 62.8015 21.878 61.2888 21.878H22.6456L18.1121 27.8444L17.8392 21.878H16.0126C14.594 21.878 13.4264 20.7627 13.3618 19.3451L12.8759 8.71394C12.8065 7.20214 14.014 5.93945 15.5268 5.93945H15.5277Z" fill="white"/>
<path d="M18.1117 28.1589C18.0803 28.1589 18.049 28.1542 18.0185 28.1447C17.8921 28.1057 17.8036 27.9906 17.7979 27.8585L17.5393 22.1925H16.0142C14.4235 22.1925 13.1209 20.9479 13.0486 19.3591L12.5627 8.72799C12.5256 7.91028 12.8166 7.13346 13.3823 6.54205C13.9481 5.95064 14.7097 5.62451 15.5283 5.62451H60.8035C62.3942 5.62451 63.6969 6.86913 63.7691 8.45795L64.255 19.0891C64.2921 19.9068 64.0011 20.6836 63.4363 21.275C62.8706 21.8674 62.109 22.1925 61.2903 22.1925H22.8021L18.3627 28.0344C18.3019 28.1142 18.2087 28.1589 18.1117 28.1589ZM15.5274 6.25395C14.8827 6.25395 14.2818 6.51068 13.8359 6.97753C13.3899 7.44438 13.1608 8.05576 13.1903 8.70041L13.6761 19.3315C13.7332 20.5838 14.7591 21.5641 16.0123 21.5641H17.8388C18.0071 21.5641 18.1459 21.6962 18.1535 21.8645L18.3865 26.9628L22.3952 21.6877C22.4551 21.6097 22.5473 21.5631 22.6462 21.5631H61.2884C61.9331 21.5631 62.534 21.3064 62.9799 20.8395C63.4259 20.3727 63.655 19.7613 63.6255 19.1166L63.1397 8.48553C63.0826 7.2333 62.0557 6.253 60.8026 6.253H15.5283L15.5274 6.25395Z" fill="black" fill-opacity="0.87"/>
<path d="M39.3427 18.554H43.2201C43.7003 18.554 44.0892 18.128 44.0892 17.6478C44.0892 17.1677 43.7003 16.7417 43.2201 16.7417H39.3427C38.8625 16.7417 38.4736 17.1677 38.4736 17.6478C38.4736 18.128 38.8625 18.554 39.3427 18.554Z" fill="#0BFF80"/>
<path d="M27.7763 18.5535H35.8345C36.3146 18.5535 36.7035 18.1275 36.7035 17.6473C36.7035 17.1672 36.3146 16.7412 35.8345 16.7412H27.7763C27.2961 16.7412 26.9072 17.1672 26.9072 17.6473C26.9072 18.1275 27.2961 18.5535 27.7763 18.5535Z" fill="#00CD62" fill-opacity="0.3"/>
<path d="M19.9726 11.0291H26.0588C26.5389 11.0291 26.9278 10.6031 26.9278 10.1229C26.9278 9.64276 26.5389 9.2168 26.0588 9.2168H19.9726C19.4924 9.2168 19.1035 9.64276 19.1035 10.1229C19.1035 10.6031 19.4924 11.0291 19.9726 11.0291Z" fill="#00CD62" fill-opacity="0.3"/>
<path d="M29.6757 11.0291H42.6848C43.165 11.0291 43.5539 10.6031 43.5539 10.1229C43.5539 9.64276 43.165 9.2168 42.6848 9.2168H29.6757C29.1955 9.2168 28.8066 9.64276 28.8066 10.1229C28.8066 10.6031 29.1955 11.0291 29.6757 11.0291Z" fill="#00CD62" fill-opacity="0.3"/>
<path d="M31.9911 14.7913H39.3305C39.8107 14.7913 40.1995 14.3653 40.1995 13.8851C40.1995 13.405 39.8107 12.979 39.3305 12.979H31.9911C31.511 12.979 31.1221 13.405 31.1221 13.8851C31.1221 14.3653 31.511 14.7913 31.9911 14.7913Z" fill="#00CD62" fill-opacity="0.3"/>
<path d="M20.2841 14.7913H28.3204C28.8006 14.7913 29.1895 14.3653 29.1895 13.8851C29.1895 13.405 28.8006 12.979 28.3204 12.979H20.2841C19.8039 12.979 19.415 13.405 19.415 13.8851C19.415 14.3653 19.8039 14.7913 20.2841 14.7913Z" fill="#00CD62"/>
<path d="M57.7145 17.4537C59.8782 15.426 60.0337 12.0763 58.0617 9.97189C56.0897 7.8675 52.7369 7.8053 50.5732 9.83297C48.4094 11.8606 48.2539 15.2103 50.2259 17.3147C52.1979 19.4191 55.5507 19.4813 57.7145 17.4537Z" fill="#00CD62" fill-opacity="0.12"/>
<path d="M55.5223 13.9624C56.3334 13.2021 56.3914 11.9463 55.652 11.1575C54.9125 10.3686 53.6556 10.3455 52.8445 11.1058C52.0335 11.8661 51.9754 13.1219 52.7149 13.9107C53.4544 14.6995 54.7113 14.7227 55.5223 13.9624Z" fill="#0BFF80"/>
<path d="M49.7393 16.7065C52.0127 19.9127 56.3979 19.3916 58.2814 16.7921C55.6381 14.4588 52.3188 14.7126 49.7393 16.7065Z" fill="#0BFF80"/>
<path d="M5.2094 95.4766H34.546C35.9646 95.4766 37.1322 96.5919 37.1969 98.0095L37.6827 108.641C37.7521 110.152 36.5446 111.415 35.0319 111.415H33.4155L28.996 117.231L28.7308 111.415H5.69527C4.27664 111.415 3.10904 110.3 3.04438 108.882L2.55851 98.251C2.4891 96.7392 3.69664 95.4766 5.2094 95.4766Z" fill="white"/>
<path d="M28.9966 117.546C28.9652 117.546 28.9339 117.541 28.9034 117.532C28.777 117.493 28.6886 117.378 28.6829 117.245L28.4309 111.73H5.69584C4.10512 111.73 2.8025 110.485 2.73023 108.896L2.24436 98.2651C2.20728 97.4474 2.49823 96.6706 3.06302 96.0792C3.62876 95.4868 4.39036 95.1616 5.20902 95.1616H34.5466C36.1373 95.1616 37.4399 96.4062 37.5122 97.9951L37.998 108.626C38.0351 109.444 37.7442 110.221 37.1784 110.812C36.6127 111.404 35.8511 111.73 35.0324 111.73H33.572L29.2467 117.421C29.1858 117.501 29.0927 117.546 28.9957 117.546H28.9966ZM5.20997 95.7911C4.56532 95.7911 3.9644 96.0478 3.51846 96.5146C3.07253 96.9815 2.84338 97.5929 2.87286 98.2375L3.35873 108.869C3.41577 110.121 4.44171 111.101 5.69489 111.101H28.7294C28.8977 111.101 29.0366 111.233 29.0442 111.402L29.2705 116.35L33.165 111.226C33.2249 111.148 33.3172 111.101 33.416 111.101H35.0324C35.6771 111.101 36.278 110.844 36.7239 110.378C37.1699 109.911 37.399 109.299 37.3695 108.655L36.8837 98.0236C36.8266 96.7714 35.8007 95.7911 34.5475 95.7911H5.20997Z" fill="black" fill-opacity="0.87"/>
<path d="M15.1581 100.469H18.9851C19.4853 100.469 19.8913 100.026 19.8913 99.5252C19.8913 99.0241 19.4853 98.5811 18.9851 98.5811H15.1581C14.658 98.5811 14.252 99.0251 14.252 99.5252C14.252 100.025 14.658 100.469 15.1581 100.469Z" fill="#00CD62" fill-opacity="0.3"/>
<path d="M7.58191 104.389H19.1515C19.6516 104.389 20.0576 103.945 20.0576 103.445C20.0576 102.945 19.6516 102.501 19.1515 102.501H7.58191C7.08178 102.501 6.67578 102.945 6.67578 103.445C6.67578 103.945 7.08178 104.389 7.58191 104.389Z" fill="#00CD62" fill-opacity="0.3"/>
<path d="M11.035 108.311H19.2872C19.7873 108.311 20.1933 107.867 20.1933 107.367C20.1933 106.866 19.7873 106.422 19.2872 106.422H11.035C10.5349 106.422 10.1289 106.866 10.1289 107.367C10.1289 107.867 10.5349 108.311 11.035 108.311Z" fill="#0BFF80"/>
<path d="M33.9277 102.883H34.3708C34.7949 102.883 35.1381 103.227 35.1381 103.651V104.476C35.1381 104.9 34.7939 105.243 34.3708 105.243H33.9277V102.883Z" fill="white"/>
<path d="M34.3711 105.559H33.928C33.754 105.559 33.6133 105.418 33.6133 105.244V102.884C33.6133 102.71 33.754 102.569 33.928 102.569H34.3711C34.9682 102.569 35.4531 103.055 35.4531 103.651V104.477C35.4531 105.074 34.9672 105.559 34.3711 105.559ZM34.2427 104.929H34.3711C34.6212 104.929 34.8237 104.726 34.8237 104.477V103.651C34.8237 103.401 34.6202 103.199 34.3711 103.199H34.2427V104.929Z" fill="black" fill-opacity="0.87"/>
<path d="M23.2705 105.244H22.8274C22.4034 105.244 22.0601 104.899 22.0601 104.476V103.651C22.0601 103.227 22.4043 102.884 22.8274 102.884H23.2705V105.244Z" fill="white"/>
<path d="M23.2702 105.559H22.8272C22.23 105.559 21.7451 105.073 21.7451 104.477V103.651C21.7451 103.054 22.231 102.569 22.8272 102.569H23.2702C23.4442 102.569 23.585 102.71 23.585 102.884V105.244C23.585 105.418 23.4442 105.559 23.2702 105.559ZM22.8272 103.199C22.5771 103.199 22.3746 103.402 22.3746 103.651V104.477C22.3746 104.727 22.578 104.929 22.8272 104.929H22.9555V103.199H22.8272Z" fill="black" fill-opacity="0.87"/>
<path d="M22.8887 103.966C22.8887 101.43 25.4454 98.8062 28.5983 98.8062C31.7513 98.8062 34.309 101.429 34.309 103.966C34.309 106.503 31.7522 107.991 28.5983 107.991C25.4445 107.991 22.8887 106.502 22.8887 103.966Z" fill="white"/>
<path d="M28.6005 108.306C25.053 108.306 22.5752 106.521 22.5752 103.966C22.5752 101.411 25.1519 98.4912 28.6005 98.4912C32.0492 98.4912 34.6259 101.382 34.6259 103.966C34.6259 106.55 32.148 108.306 28.6005 108.306ZM28.6005 99.1207C25.5123 99.1207 23.2056 101.678 23.2056 103.966C23.2056 106.254 25.4239 107.676 28.6005 107.676C31.7772 107.676 33.9955 106.15 33.9955 103.966C33.9955 101.782 31.6879 99.1207 28.6005 99.1207Z" fill="black" fill-opacity="0.87"/>
<path d="M32.4403 103.204H26.9417C26.3703 103.204 25.9072 103.703 25.9072 104.318V105.046C25.9072 105.516 26.1582 106.013 26.5899 106.094C28.1141 106.38 31.2679 106.38 32.7921 106.094C33.2247 106.013 33.4748 105.515 33.4748 105.046V104.318C33.4748 103.703 33.0118 103.204 32.4403 103.204Z" fill="black" fill-opacity="0.87"/>
<path d="M28.0512 105.041C28.2423 105.041 28.3973 104.874 28.3973 104.668C28.3973 104.461 28.2423 104.294 28.0512 104.294C27.86 104.294 27.7051 104.461 27.7051 104.668C27.7051 104.874 27.86 105.041 28.0512 105.041Z" fill="#00CD62"/>
<path d="M31.7387 105.041C31.9298 105.041 32.0848 104.874 32.0848 104.668C32.0848 104.461 31.9298 104.294 31.7387 104.294C31.5475 104.294 31.3926 104.461 31.3926 104.668C31.3926 104.874 31.5475 105.041 31.7387 105.041Z" fill="#00CD62"/>
<path d="M12.9359 125.768H51.2169C52.5756 125.768 53.6947 126.836 53.7565 128.194L54.2519 139.049C54.3185 140.497 53.1623 141.707 51.7123 141.707H20.1707L15.6372 147.674L15.3643 141.707H13.4313C12.0726 141.707 10.9535 140.638 10.8917 139.281L10.3963 128.426C10.3297 126.978 11.4859 125.768 12.9359 125.768Z" fill="white"/>
<path d="M15.3613 148.629L15.0628 142.096H13.5376C11.9469 142.096 10.6443 140.851 10.572 139.262L10.0862 128.631C10.0491 127.814 10.34 127.037 10.9058 126.445C11.4715 125.853 12.2331 125.528 13.0518 125.528H39.2117C39.3857 125.528 39.5264 125.669 39.5264 125.843C39.5264 126.017 39.3857 126.157 39.2117 126.157H13.0527C12.4081 126.157 11.8071 126.414 11.3612 126.881C10.9153 127.348 10.6861 127.959 10.7156 128.604L11.2015 139.235C11.2585 140.487 12.2854 141.467 13.5386 141.467H15.6656L15.9118 146.866L20.0146 141.467H51.5961C52.2408 141.467 52.8417 141.211 53.2876 140.744C53.7335 140.277 53.9627 139.666 53.9332 139.021L53.4473 128.39C53.3903 127.138 52.3634 126.157 51.1112 126.157H42.1516C41.9776 126.157 41.8369 126.017 41.8369 125.843C41.8369 125.669 41.9776 125.528 42.1516 125.528H51.1112C52.7019 125.528 54.0045 126.772 54.0768 128.361L54.5627 138.992C54.5997 139.81 54.3088 140.587 53.744 141.178C53.1783 141.771 52.4167 142.096 51.598 142.096H20.3265L15.3613 148.629Z" fill="black" fill-opacity="0.87"/>
<path d="M16.8508 131.138H22.86C23.3344 131.138 23.7185 130.717 23.7185 130.243C23.7185 129.768 23.3344 129.348 22.86 129.348H16.8508C16.3763 129.348 15.9922 129.768 15.9922 130.243C15.9922 130.717 16.3763 131.138 16.8508 131.138Z" fill="#0BFF80"/>
<path d="M26.4318 131.138H30.0583C30.5327 131.138 30.9169 130.717 30.9169 130.243C30.9169 129.768 30.5327 129.348 30.0583 129.348H26.4318C25.9574 129.348 25.5732 129.768 25.5732 130.243C25.5732 130.717 25.9574 131.138 26.4318 131.138Z" fill="#00CD62" fill-opacity="0.3"/>
<path d="M19.3596 134.852H30.3216C30.796 134.852 31.1802 134.432 31.1802 133.958C31.1802 133.483 30.796 133.063 30.3216 133.063H19.3596C18.8851 133.063 18.501 133.483 18.501 133.958C18.501 134.432 18.8851 134.852 19.3596 134.852Z" fill="#00CD62" fill-opacity="0.3"/>
<path d="M22.6301 138.43H30.4487C30.9231 138.43 31.3073 138.01 31.3073 137.535C31.3073 137.061 30.9231 136.641 30.4487 136.641H22.6301C22.1556 136.641 21.7715 137.061 21.7715 137.535C21.7715 138.01 22.1556 138.43 22.6301 138.43Z" fill="#00CD62"/>
<path d="M17.4006 138.567H19.1653C19.6398 138.567 20.0239 138.147 20.0239 137.673C20.0239 137.198 19.6398 136.778 19.1653 136.778H17.4006C16.9261 136.778 16.542 137.198 16.542 137.673C16.542 138.147 16.9261 138.567 17.4006 138.567Z" fill="#0BFF80"/>
<path d="M45.5631 137.885C47.7269 135.858 47.8823 132.508 45.9103 130.404C43.9383 128.299 40.5856 128.237 38.4218 130.265C36.258 132.292 36.1025 135.642 38.0746 137.746C40.0466 139.851 43.3993 139.913 45.5631 137.885Z" fill="#00CD62" fill-opacity="0.12"/>
<path d="M43.3776 134.398C44.1887 133.638 44.247 132.382 43.5077 131.593C42.7683 130.804 41.5114 130.781 40.7002 131.541C39.889 132.301 39.8308 133.557 40.5701 134.346C41.3094 135.135 42.5664 135.158 43.3776 134.398Z" fill="#0BFF80"/>
<path d="M37.5918 137.136C39.8652 140.342 44.2504 139.821 46.134 137.222C43.4907 134.888 40.1714 135.142 37.5918 137.136Z" fill="#0BFF80"/>
</g>
<defs>
<clipPath id="clip0_10771_89093">
<rect width="173.893" height="174" fill="white" transform="translate(0.107422)"/>
</clipPath>
</defs>
</svg>
